<svg width="105" height="104" viewBox="0 0 105 104" fill="none" xmlns="http://www.w3.org/2000/svg">
<path d="M83.4308 11.6906L66.3888 28.7122C58.4296 36.6618 45.5701 36.6618 37.6109 28.7122L20.6001 11.6906L32.3048 0L51.9998 19.6714L71.7261 0L83.4308 11.6906Z" fill="#436743"/>
<path d="M92.3263 83.2992L75.2843 66.2777C67.3251 58.3281 67.3251 45.4839 75.2843 37.5343L92.3263 20.5127L104.031 32.2034L84.3359 51.8748L104.031 71.5463L92.3263 83.2369V83.2992Z" fill="#436743"/>
<path d="M20.6001 92.309L37.6421 75.2874C45.6013 67.3378 58.4608 67.3378 66.42 75.2874L83.462 92.309L71.7573 104L52.0622 84.3282L32.3672 104L20.6625 92.309H20.6001Z" fill="#436743"/>
<path d="M11.7047 20.5752L28.7467 37.5968C36.7058 45.5464 36.7058 58.3905 28.7467 66.3402L11.7047 83.3617L0 71.6711L19.6951 51.9996L0 32.297L11.7047 20.6064V20.5752Z" fill="#436743"/>
</svg>
