<svg width="42" height="42" viewBox="0 0 42 42" fill="none" xmlns="http://www.w3.org/2000/svg">
<rect x="0.5" y="0.5" width="41" height="41" rx="20.5" fill="url(#paint0_linear_312_136)" fill-opacity="0.08"/>
<rect x="0.5" y="0.5" width="41" height="41" rx="20.5" stroke="url(#paint1_linear_312_136)"/>
<path d="M30 14V20.59L27 17.58L23 21.59L19 17.59L15 21.59L12 18.58V14C12 12.9 12.9 12 14 12H28C29.1 12 30 12.9 30 14ZM27 20.42L30 23.43V28C30 29.1 29.1 30 28 30H14C12.9 30 12 29.1 12 28V21.42L15 24.41L19 20.41L23 24.41L27 20.42Z" fill="#C7C6C6"/>
<defs>
<linearGradient id="paint0_linear_312_136" x1="21" y1="0" x2="21" y2="42" gradientUnits="userSpaceOnUse">
<stop stop-color="#D9D9D9"/>
<stop offset="1" stop-color="#737373"/>
</linearGradient>
<linearGradient id="paint1_linear_312_136" x1="15.5806" y1="-20.3226" x2="21" y2="42" gradientUnits="userSpaceOnUse">
<stop stop-color="#2C2C2C"/>
<stop offset="1" stop-color="white" stop-opacity="0"/>
</linearGradient>
</defs>
</svg>
