<svg width="42" height="42" viewBox="0 0 42 42" fill="none" xmlns="http://www.w3.org/2000/svg">
<rect x="0.5" y="0.5" width="41" height="41" rx="20.5" fill="url(#paint0_linear_513_3024)" fill-opacity="0.08"/>
<rect x="0.5" y="0.5" width="41" height="41" rx="20.5" stroke="url(#paint1_linear_513_3024)"/>
<path d="M15 13.5V28.5L16.5 27.75L18 28.5L19.5 27.75L21 28.5L22.5 27.75L24 28.5L25.5 27.75L27 28.5V13.5L25.5 14.25L24 13.5L22.5 14.25L21 13.5L19.5 14.25L18 13.5L16.5 14.25L15 13.5Z" stroke="#C7C6C6" stroke-width="2" stroke-linecap="round" stroke-linejoin="round"/>
<path d="M18 21H21.75" stroke="#C7C6C6" stroke-width="2" stroke-linecap="round" stroke-linejoin="round"/>
<path d="M24.0005 19.1252C23.6019 18.6592 23.0701 18.3265 22.4766 18.172C21.8831 18.0175 21.2566 18.0485 20.6813 18.261C20.1061 18.4735 19.6097 18.8571 19.2592 19.3603C18.9086 19.8634 18.7207 20.462 18.7207 21.0752C18.7207 21.6884 18.9086 22.2869 19.2592 22.7901C19.6097 23.2933 20.1061 23.6769 20.6813 23.8894C21.2566 24.1019 21.8831 24.1329 22.4766 23.9784C23.0701 23.8239 23.6019 23.4912 24.0005 23.0252" stroke="#C7C6C6" stroke-width="2" stroke-linecap="round" stroke-linejoin="round"/>
<defs>
<linearGradient id="paint0_linear_513_3024" x1="21" y1="0" x2="21" y2="42" gradientUnits="userSpaceOnUse">
<stop stop-color="#D9D9D9"/>
<stop offset="1" stop-color="#737373"/>
</linearGradient>
<linearGradient id="paint1_linear_513_3024" x1="15.5806" y1="-20.3226" x2="21" y2="42" gradientUnits="userSpaceOnUse">
<stop stop-color="#2C2C2C"/>
<stop offset="1" stop-color="white" stop-opacity="0"/>
</linearGradient>
</defs>
</svg>
