<svg width="42" height="42" viewBox="0 0 42 42" fill="none" xmlns="http://www.w3.org/2000/svg">
<rect x="0.5" y="0.5" width="41" height="41" rx="20.5" fill="url(#paint0_linear_513_3036)" fill-opacity="0.08"/>
<rect x="0.5" y="0.5" width="41" height="41" rx="20.5" stroke="url(#paint1_linear_513_3036)"/>
<g clip-path="url(#clip0_513_3036)">
<path d="M16.5 28.5C17.7426 28.5 18.75 27.4926 18.75 26.25C18.75 25.0074 17.7426 24 16.5 24C15.2574 24 14.25 25.0074 14.25 26.25C14.25 27.4926 15.2574 28.5 16.5 28.5Z" stroke="#C7C6C6" stroke-width="2" stroke-linecap="round" stroke-linejoin="round"/>
<path d="M18.75 26.2501H25.125C25.425 26.2501 25.8 26.1751 26.1 26.1001" stroke="#C7C6C6" stroke-width="2" stroke-linecap="round" stroke-linejoin="round"/>
<path d="M15.9 15.8999C15.3371 16.1307 14.8711 16.5513 14.5814 17.09C14.2916 17.6286 14.1961 18.252 14.3112 18.8537C14.4262 19.4554 14.7446 19.9983 15.2122 20.3896C15.6797 20.781 16.2674 20.9967 16.875 20.9999H21" stroke="#C7C6C6" stroke-width="2" stroke-linecap="round" stroke-linejoin="round"/>
<path d="M13.5 13.5L28.5 28.5" stroke="#C7C6C6" stroke-width="2" stroke-linecap="round" stroke-linejoin="round"/>
<path d="M27.7504 23.475C27.7145 22.8303 27.4422 22.2214 26.9856 21.7648C26.529 21.3082 25.9201 21.0359 25.2754 21" stroke="#C7C6C6" stroke-width="2" stroke-linecap="round" stroke-linejoin="round"/>
<path d="M23.2504 15.75H20.0254" stroke="#C7C6C6" stroke-width="2" stroke-linecap="round" stroke-linejoin="round"/>
<path d="M25.5 18C26.7426 18 27.75 16.9926 27.75 15.75C27.75 14.5074 26.7426 13.5 25.5 13.5C24.2574 13.5 23.25 14.5074 23.25 15.75C23.25 16.9926 24.2574 18 25.5 18Z" stroke="#C7C6C6" stroke-width="2" stroke-linecap="round" stroke-linejoin="round"/>
</g>
<defs>
<linearGradient id="paint0_linear_513_3036" x1="21" y1="0" x2="21" y2="42" gradientUnits="userSpaceOnUse">
<stop stop-color="#D9D9D9"/>
<stop offset="1" stop-color="#737373"/>
</linearGradient>
<linearGradient id="paint1_linear_513_3036" x1="15.5806" y1="-20.3226" x2="21" y2="42" gradientUnits="userSpaceOnUse">
<stop stop-color="#2C2C2C"/>
<stop offset="1" stop-color="white" stop-opacity="0"/>
</linearGradient>
<clipPath id="clip0_513_3036">
<rect width="18" height="18" fill="white" transform="translate(12 12)"/>
</clipPath>
</defs>
</svg>
