<svg width="111" height="80" viewBox="0 0 111 80" fill="none" xmlns="http://www.w3.org/2000/svg">
<path d="M19.9632 25.2887H7.72002V37.8724H0V6H21.0954V12.7022H7.72002V18.5837H19.9632V25.2887Z" fill="#00C98D"/>
<path d="M40.4484 15.6984L39.5623 21.5936C38.4188 21.1306 37.1972 20.891 35.9635 20.8878C33.2124 20.8878 31.3145 22.573 31.3145 25.853V37.8704H25.3857V15.8106H31.1286V18.2261C32.5151 16.1525 34.6317 15.217 37.339 15.217C38.3957 15.1941 39.4481 15.357 40.4484 15.6984Z" fill="#012B45"/>
<path d="M63.1272 26.8067C63.1291 27.4758 63.0917 28.1445 63.0151 28.8092H47.3781C48.0181 31.988 50.2468 33.3831 53.0526 33.3831C55.0989 33.3396 57.0678 32.5929 58.6286 31.2685L62.1099 35.0983C59.6076 37.3962 56.4217 38.444 52.7135 38.444C45.9534 38.444 41.2661 33.8454 41.2661 26.9025C41.2661 19.9595 45.8084 15.2188 52.41 15.2188C58.7572 15.2188 63.1053 19.9322 63.1272 26.8067ZM47.4027 24.7578H57.1546C56.6077 21.9346 54.9013 20.3398 52.3525 20.3398C49.5632 20.3398 47.9251 22.0249 47.4027 24.7578Z" fill="#012B45"/>
<path d="M87.3542 26.8067C87.3561 27.4758 87.3187 28.1445 87.242 28.8092H71.6078C72.245 31.9962 74.4765 33.3831 77.2741 33.3831C79.3241 33.3417 81.2971 32.5949 82.8611 31.2685L86.3423 35.0983C83.8374 37.3962 80.6542 38.444 76.9432 38.444C70.1858 38.444 65.4985 33.8454 65.4985 26.9025C65.4985 19.9595 70.0381 15.2188 76.6369 15.2188C82.9869 15.2188 87.3323 19.9322 87.3542 26.8067ZM71.6324 24.7578H81.3925C80.8456 21.9346 79.1419 20.3398 76.5904 20.3398C73.7928 20.3398 72.1548 22.0249 71.6324 24.7578Z" fill="#012B45"/>
<path d="M107.999 28.6671H89.625V22.7637H107.999V28.6671Z" fill="#029FFF"/>
<path d="M35.0262 72.8052H26.1357L21.4867 54.1622L16.8378 72.8052H7.95549L0.0249023 40.9355H7.77774L12.5197 62.3088L17.5214 40.9355H25.5587L30.5604 62.3334L35.3024 40.9355H42.9595L35.0262 72.8052Z" fill="#FE6B00"/>
<path d="M66.6883 61.7642C66.6883 68.4117 61.6154 73.374 54.7404 73.374C47.8654 73.374 42.8418 68.4117 42.8418 61.7642C42.8418 55.1167 47.8928 50.1543 54.7404 50.1543C61.5881 50.1543 66.6883 55.1167 66.6883 61.7642ZM48.8937 61.7642C48.8937 65.3369 51.3986 67.8427 54.7404 67.8427C58.0822 67.8427 60.6118 65.3369 60.6118 61.7642C60.6118 58.1915 58.0877 55.6857 54.7404 55.6857C51.3932 55.6857 48.8937 58.1887 48.8937 61.7642Z" fill="#012B45"/>
<path d="M85.4809 50.6337L84.5921 56.5289C83.4497 56.0655 82.2288 55.8259 80.996 55.8231C78.2422 55.8231 76.3471 57.5083 76.3471 60.7882V72.8057H70.4155V50.7459H76.1748V53.1614C77.5613 51.0878 79.6779 50.1522 82.3853 50.1522C83.4373 50.131 84.485 50.2939 85.4809 50.6337Z" fill="#012B45"/>
<path d="M95.347 58.5993H97.4417L103.652 50.7454H110.935L102.244 61.1407L110.995 72.8189H103.696L97.3488 63.8954H95.347V72.8189H89.4072V40.0273H95.347V58.5993Z" fill="#012B45"/>
</svg>
