<svg width="29" height="29" viewBox="0 0 29 29" fill="none" xmlns="http://www.w3.org/2000/svg">
<path d="M14.2197 6.04883C14.0848 6.04883 14.062 6.16727 14.062 6.36299H14.3597C14.3597 6.15904 14.3337 6.04883 14.2197 6.04883Z" fill="#E30613"/>
<path d="M14.25 0C6.38021 0 0 6.38021 0 14.25C0 22.1198 6.38021 28.5 14.25 28.5C22.1198 28.5 28.5 22.1198 28.5 14.25C28.5 6.38021 22.1204 0 14.25 0ZM17.4436 5.78006C17.9556 5.78006 17.9911 6.12201 17.9911 6.61684H17.2958V6.70566C17.2958 6.93151 17.3262 7.04189 17.4461 7.04189C17.5533 7.04189 17.5863 6.95815 17.5965 6.77544H17.9784C17.9708 7.13579 17.7849 7.31088 17.4436 7.31088C16.9234 7.31088 16.8828 6.9258 16.8828 6.49313C16.8828 6.08394 16.9951 5.78006 17.4436 5.78006ZM14.2094 5.78006C14.7214 5.78006 14.7575 6.12201 14.7575 6.61684H14.0622V6.70566C14.0622 6.93151 14.0927 7.04189 14.2126 7.04189C14.3198 7.04189 14.3528 6.95815 14.3629 6.77544H14.7448C14.7372 7.13579 14.5513 7.31088 14.2094 7.31088C13.6898 7.31088 13.6492 6.9258 13.6492 6.49313C13.6492 6.08394 13.7615 5.78006 14.2094 5.78006ZM10.4169 5.81813L10.5774 6.89154H10.5825L10.7455 5.81813H11.1585L10.8172 7.27409H10.3275L9.9887 5.81813H10.4169ZM8.1096 23.3004H6.32946V8.07851H8.1096V23.3004ZM11.4992 20.87H9.71908V12.2745H11.4992V20.87ZM11.4992 10.6643H9.71908V8.8842H11.4992V10.6643ZM11.8253 7.27345H11.4123V5.81749H11.8253V7.27345ZM11.8253 5.58974H11.4123V5.17865H11.8253V5.58974ZM12.6025 7.27345H12.1895V5.17865H12.6025V7.27345ZM12.9672 5.17865H13.3802V7.27345H12.9672V5.17865ZM13.1106 23.3004L13.1093 10.6637H14.8882L14.8895 23.3004H13.1106ZM16.2116 7.09582C16.1811 7.19542 16.0968 7.31088 15.9134 7.31088C15.6355 7.31088 15.4877 7.10089 15.4877 6.55721C15.4877 6.10551 15.5486 5.77943 15.888 5.77943C16.0029 5.77943 16.1278 5.82003 16.1964 5.97609H16.2014V5.17801H16.6144V7.27282H16.2167V7.09518H16.2116V7.09582ZM18.2804 20.0802H16.5002V8.88357H18.2804V20.0802ZM18.7942 6.74816L19.2333 6.20511C19.2333 6.20511 19.756 6.13406 19.9888 6.72977C19.9926 6.73865 19.9971 6.7507 20.0015 6.76402C20.0047 6.77291 20.0123 6.77925 20.0218 6.77608C20.0294 6.77417 20.0345 6.76783 20.032 6.75578C20.0294 6.74182 20.0269 6.73421 20.0244 6.72406C19.8791 6.13343 19.5695 5.68807 19.5695 5.68807L20.1493 4.90585L20.7285 5.68807C20.7285 5.68807 20.419 6.13343 20.2737 6.72406C20.2711 6.73421 20.2686 6.74119 20.2661 6.75578C20.2635 6.76783 20.2686 6.77417 20.2762 6.77608C20.2857 6.77861 20.2933 6.77291 20.2965 6.76402C20.3016 6.75007 20.306 6.73865 20.3092 6.72977C20.542 6.13406 21.0654 6.20511 21.0654 6.20511L21.5044 6.74816C21.5044 6.74816 20.3409 6.63905 20.2578 7.4809H20.0402C19.9571 6.63905 18.7936 6.74816 18.7936 6.74816H18.7942ZM22.7567 13.0656H21.6313V15.8354H22.7567V17.3783H21.6313V20.1481H22.7567V21.6909H19.8905V11.5233H22.7567V13.0662V13.0656Z" fill="#E30613"/>
<path d="M16.0588 6.09766C15.9085 6.09766 15.9009 6.27275 15.9009 6.53666C15.9009 6.77076 15.906 6.99407 16.0614 6.99407C16.1838 6.99407 16.2092 6.83801 16.2092 6.5557C16.2092 6.29749 16.199 6.09766 16.0588 6.09766Z" fill="#E30613"/>
<path d="M17.4536 6.04883C17.3187 6.04883 17.2959 6.16727 17.2959 6.36299H17.5936C17.5936 6.15904 17.5683 6.04883 17.4536 6.04883Z" fill="#E30613"/>
</svg>
